<svg xmlns="http://www.w3.org/2000/svg" width="144.102" height="30.329" viewBox="0 0 144.102 30.329">
  <g id="Group_211" data-name="Group 211" transform="translate(0 0.001)">
    <path id="Path_144" data-name="Path 144" d="M-929.293,9872.335v-7.289l7.749,10.158h8.667l7.519-7.289-4.707-6.258H-912.3l-4.477,3.963-2.985-3.215,5.625-5.165h6.2l8.667,10.675-11.594,11.94h-12.857Z" transform="translate(929.657 -9849.527)" fill="#3665e3"/>
    <path id="Path_145" data-name="Path 145" d="M0,14.636.24,7.753,7.766,18.165h8.667l7.519-7.29L19.245,4.619H17.007l-4.471,4-2.794-3.5L15.665,0l5.7.2L30.015,11.62,18.442,22.814l-13.1-.457Z" transform="translate(30.792 22.799) rotate(178)" fill="#3665e3"/>
  </g>
  <path id="Path_190" data-name="Path 190" d="M6.112-11.2H1.5V0h2.08V-3.232H6.112c2.944,0,4.768-1.52,4.768-3.984C10.88-9.7,9.056-11.2,6.112-11.2Zm-.1,6.208H3.584V-9.44H6.016c1.824,0,2.768.816,2.768,2.224S7.84-4.992,6.016-4.992ZM18.352.16A5.726,5.726,0,0,0,24.384-5.6a5.726,5.726,0,0,0-6.032-5.76A5.735,5.735,0,0,0,12.32-5.6,5.735,5.735,0,0,0,18.352.16Zm0-1.824A3.817,3.817,0,0,1,14.416-5.6a3.817,3.817,0,0,1,3.936-3.936A3.817,3.817,0,0,1,22.288-5.6,3.817,3.817,0,0,1,18.352-1.664ZM26.592,0h7.936V-1.76H28.672V-11.2h-2.08ZM44.224-11.2H42.176L38.864-5.744,35.584-11.2H33.36l4.4,7.28V0h2.08V-3.952ZM57.68,0l-.016-11.2H55.952L51.584-3.776,47.136-11.2H45.424V0h1.984V-7.328l3.68,6.048h.928L55.7-7.424,55.712,0ZM60.7,0h2.08V-11.2H60.7ZM73.7-11.2v7.584L67.52-11.2H65.808V0h2.064V-7.584L74.048,0H75.76V-11.2ZM78.768,0h4.9c3.632,0,6.112-2.24,6.112-5.6s-2.48-5.6-6.112-5.6h-4.9Zm2.08-1.76V-9.44h2.72c2.5,0,4.112,1.52,4.112,3.84s-1.616,3.84-4.112,3.84ZM95.456.16c3.072,0,4.528-1.536,4.528-3.328,0-4.112-6.64-2.56-6.64-4.944,0-.848.7-1.52,2.432-1.52a6.224,6.224,0,0,1,3.088.88l.656-1.616a7.081,7.081,0,0,0-3.728-.992c-3.072,0-4.512,1.536-4.512,3.344,0,4.16,6.656,2.576,6.656,4.992,0,.832-.736,1.456-2.48,1.456A6.206,6.206,0,0,1,91.76-2.8l-.72,1.616A7.217,7.217,0,0,0,95.456.16Z" transform="translate(44.118 20.665)" fill="#3665e3"/>
</svg>
